<?xml version="1.0" encoding="UTF-8" standalone="no" ?>
<!DOCTYPE svg PUBLIC "-//W3C//DTD SVG 1.1//EN" "http://www.w3.org/Graphics/SVG/1.1/DTD/svg11.dtd">
<svg xmlns="http://www.w3.org/2000/svg" xmlns:xlink="http://www.w3.org/1999/xlink" version="1.1" width="1080" height="1080" viewBox="0 0 1080 1080" xml:space="preserve">
<desc>Created with Fabric.js 5.2.4</desc>
<defs>
</defs>
<rect x="0" y="0" width="100%" height="100%" fill="transparent"></rect>
<g transform="matrix(1 0 0 1 540 540)" id="f62ab9d2-76c4-4955-bffb-381081041fc8"  >
<rect style="stroke: none; stroke-width: 1; stroke-dasharray: none; stroke-linecap: butt; stroke-dashoffset: 0; stroke-linejoin: miter; stroke-miterlimit: 4; fill: rgb(255,255,255); fill-rule: nonzero; opacity: 1; visibility: hidden;" vector-effect="non-scaling-stroke"  x="-540" y="-540" rx="0" ry="0" width="1080" height="1080" />
</g>
<g transform="matrix(1 0 0 1 540 540)" id="a28a5317-4386-4644-b10e-16fe642f40ef"  >
</g>
<g transform="matrix(11.88 0 0 12.92 539.22 538.3)" id="c8fc0cc4-75c3-4ac5-b050-96061afbc456"  >
<path style="stroke: rgb(0,0,0); stroke-width: 0; stroke-dasharray: none; stroke-linecap: butt; stroke-dashoffset: 0; stroke-linejoin: miter; stroke-miterlimit: 4; fill: rgb(255,255,255); fill-rule: nonzero; opacity: 1;" vector-effect="non-scaling-stroke"  transform=" translate(-50, -50)" d="M 84.664 81.303 C 78.211 72.13499999999999 71.197 63.306 63.52 55.04899999999999 C 65.64 53.33299999999999 67.791 51.635999999999996 69.979 49.96199999999999 C 78.386 57.499999999999986 86.401 65.17499999999998 94.334 72.65099999999998 C 88.058 63.73399999999998 81.25200000000001 55.13799999999998 73.821 47.07599999999998 C 80.194 42.37699999999998 86.878 37.88599999999998 93.975 33.711999999999975 L 92.70299999999999 27.349999999999973 C 84.37899999999999 31.753999999999973 76.61099999999999 36.80099999999997 69.338 42.35899999999997 C 67.862 40.85299999999997 66.362 39.366999999999976 64.83699999999999 37.90499999999997 C 71.30899999999998 33.11599999999997 78.10199999999999 28.541999999999973 85.32199999999999 24.294999999999973 L 84.04999999999998 17.93299999999997 C 75.47599999999998 22.46999999999997 67.49299999999998 27.687999999999974 60.03199999999998 33.44499999999997 C 58.44099999999998 32.01899999999997 56.82499999999998 30.61599999999997 55.18099999999998 29.24099999999997 C 61.64899999999999 24.45599999999997 68.43699999999998 19.88599999999997 75.65099999999998 15.641999999999971 L 74.38 9.28 C 65.667 13.89 57.565 19.203 50 25.071 C 42.435 19.203 34.333 13.89 25.62 9.28 L 24.348000000000003 15.642 C 31.563000000000002 19.884999999999998 38.351 24.456 44.818 29.241 C 43.174 30.616 41.559 32.019 39.967 33.445 C 32.506 27.687 24.522999999999996 22.469 15.948999999999998 17.933 L 14.676999999999998 24.295 C 21.897 28.542 28.689999999999998 33.116 35.162 37.905 C 33.637 39.367000000000004 32.137 40.852000000000004 30.660999999999998 42.359 C 23.388 36.8 15.621 31.754 7.296 27.35 L 6.023000000000001 33.712 C 13.120000000000001 37.886 19.804000000000002 42.376000000000005 26.177 47.07600000000001 C 18.747 55.138 11.941 63.733 5.665 72.65 C 13.597999999999999 65.174 21.614 57.49900000000001 30.02 49.961000000000006 C 32.208 51.635000000000005 34.359 53.333000000000006 36.479 55.048 C 28.802 63.306 21.787999999999997 72.134 15.335 81.302 C 23.437 73.667 31.627000000000002 65.82300000000001 40.230000000000004 58.13100000000001 C 42.265 59.827000000000005 44.272000000000006 61.53800000000001 46.254000000000005 63.26100000000001 C 38.135000000000005 71.861 30.754000000000005 81.10400000000001 23.987000000000005 90.71800000000002 C 32.441 82.755 40.987 74.562 50 66.552 C 59.013 74.56200000000001 67.559 82.75500000000001 76.011 90.72 C 69.244 81.106 61.863 71.863 53.744 63.263 C 55.726 61.54 57.734 59.829 59.768 58.132999999999996 C 68.372 65.825 76.562 73.668 84.664 81.303 z M 65.13 45.673 C 63.144999999999996 47.286 61.20099999999999 48.940000000000005 59.291 50.628 C 57.723 49.036 56.129999999999995 47.465 54.507 45.923 C 56.373 44.408 58.265 42.909 60.183 41.427 C 61.85 42.833 63.498 44.249 65.13 45.673 z M 50 33.171 C 51.757 34.536 53.493 35.913 55.206 37.304 C 53.442 38.765 51.704 40.253 50 41.773 C 48.296 40.253 46.558 38.765 44.794 37.304 C 46.507 35.913 48.243 34.535 50 33.171 z M 34.87 45.673 C 36.501999999999995 44.249 38.15 42.833 39.817 41.427 C 41.735 42.91 43.628 44.409 45.493 45.923 C 43.870000000000005 47.465 42.277 49.036 40.709 50.628 C 38.799 48.94 36.855 47.286 34.87 45.673 z M 50 59.394 C 48.255 57.638 46.473 55.915 44.661 54.221 C 46.421 52.687 48.199 51.16 50 49.645999999999994 C 51.801 51.16 53.579 52.68699999999999 55.339 54.221 C 53.527 55.915 51.745 57.638 50 59.394 z" stroke-linecap="round" />
</g>
</svg>